<!-- Generated by IcoMoon.io -->
<svg version="1.1" xmlns="http://www.w3.org/2000/svg" width="32" height="32" viewBox="0 0 32 32">
<path d="M20 16q0-1.625-1.188-2.813t-2.813-1.188v-2.688q2.75 0 4.719 1.969t1.969 4.719h-2.688zM25.313 16q0-3.875-2.719-6.594t-6.594-2.719v-2.688q5 0 8.5 3.5t3.5 8.5h-2.688zM26.688 20.688q0.563 0 0.938 0.375t0.375 0.938v4.688q0 0.563-0.375 0.938t-0.938 0.375q-9.375 0-16.031-6.656t-6.656-16.031q0-0.563 0.375-0.938t0.938-0.375h4.688q0.563 0 0.938 0.375t0.375 0.938v0.063q0 2.563 0.75 4.688 0.125 0.25 0.125 0.438 0 0.625-0.438 0.938l-2.938 2.938q1.25 2.375 3.844 4.969t4.969 3.844l2.938-2.938q0.438-0.438 0.938-0.438 0.188 0 0.438 0.125 2.25 0.75 4.75 0.75z"></path>
</svg>
